# xmcd CD database file
#
# Track frame offsets:
#	150
#	10411
#	46263
#	67241
#	99982
#	126189
#	149198
#	174591
#	185471
#	191312
#	198815
#	210954
#	224292
#	233558
#	275472
#
# Disc length: 3986 seconds
#
# Revision: 0
# Processed by: cddbd v1.5.2PL0 Copyright (c) Steve Scherf et al.
# Submitted via: CDex 1.70beta2
#
DISCID=da0f900f
DTITLE=Karsten Sitterle´s code of diseases - F43.2
DYEAR=2007
DGENRE=Jazz
TTITLE0=F44.4
TTITLE1=F48.8
TTITLE2=F50.8
TTITLE3=F43.2
TTITLE4=F63.0
TTITLE5=F52.7
TTITLE6=F92.8
TTITLE7=F44.2
TTITLE8=F51.1
TTITLE9=F80.0
TTITLE10=F68.1
TTITLE11=F55.5
TTITLE12=F91.2
TTITLE13=F60.6
TTITLE14=F79.9
EXTD=YEAR: 2007
EXTT0=
EXTT1=
EXTT2=
EXTT3=
EXTT4=
EXTT5=
EXTT6=
EXTT7=
EXTT8=
EXTT9=
EXTT10=
EXTT11=
EXTT12=
EXTT13=
EXTT14=
PLAYORDER=
